<mxfile host="65bd71144e">
    <diagram id="miQshOV-ZxXSHq4foNU8" name="Page-1">
        <mxGraphModel dx="946" dy="2113" grid="1" gridSize="10" guides="1" tooltips="1" connect="1" arrows="1" fold="1" page="1" pageScale="1" pageWidth="827" pageHeight="1169" math="0" shadow="0">
            <root>
                <mxCell id="0"/>
                <mxCell id="1" parent="0"/>
                <mxCell id="9" value="GameView" style="swimlane;fontStyle=0;childLayout=stackLayout;horizontal=1;startSize=30;horizontalStack=0;resizeParent=1;resizeParentMax=0;resizeLast=0;collapsible=1;marginBottom=0;whiteSpace=wrap;html=1;" parent="1" vertex="1">
                    <mxGeometry x="370" y="880" width="140" height="90" as="geometry"/>
                </mxCell>
                <mxCell id="10" value="&lt;span style=&quot;text-align: center;&quot;&gt;* click on hex&lt;/span&gt;" style="text;strokeColor=none;fillColor=none;align=left;verticalAlign=middle;spacingLeft=4;spacingRight=4;overflow=hidden;points=[[0,0.5],[1,0.5]];portConstraint=eastwest;rotatable=0;whiteSpace=wrap;html=1;" parent="9" vertex="1">
                    <mxGeometry y="30" width="140" height="30" as="geometry"/>
                </mxCell>
                <mxCell id="47" value="&lt;span style=&quot;text-align: center;&quot;&gt;updateView()&lt;/span&gt;" style="text;strokeColor=none;fillColor=none;align=left;verticalAlign=middle;spacingLeft=4;spacingRight=4;overflow=hidden;points=[[0,0.5],[1,0.5]];portConstraint=eastwest;rotatable=0;whiteSpace=wrap;html=1;" parent="9" vertex="1">
                    <mxGeometry y="60" width="140" height="30" as="geometry"/>
                </mxCell>
                <mxCell id="13" value="RemotePlayMoveController" style="swimlane;fontStyle=0;childLayout=stackLayout;horizontal=1;startSize=30;horizontalStack=0;resizeParent=1;resizeParentMax=0;resizeLast=0;collapsible=1;marginBottom=0;whiteSpace=wrap;html=1;" parent="1" vertex="1">
                    <mxGeometry x="355" y="740" width="170" height="60" as="geometry">
                        <mxRectangle x="440" y="110" width="190" height="30" as="alternateBounds"/>
                    </mxGeometry>
                </mxCell>
                <mxCell id="25" value="move(game, move)" style="text;strokeColor=none;fillColor=none;align=left;verticalAlign=middle;spacingLeft=4;spacingRight=4;overflow=hidden;points=[[0,0.5],[1,0.5]];portConstraint=eastwest;rotatable=0;whiteSpace=wrap;html=1;" parent="13" vertex="1">
                    <mxGeometry y="30" width="170" height="30" as="geometry"/>
                </mxCell>
                <mxCell id="4" value="" style="endArrow=classic;html=1;" parent="1" source="10" target="25" edge="1">
                    <mxGeometry width="50" height="50" relative="1" as="geometry">
                        <mxPoint x="255" y="335" as="sourcePoint"/>
                        <mxPoint x="390" y="240" as="targetPoint"/>
                    </mxGeometry>
                </mxCell>
                <mxCell id="29" value="Player" style="swimlane;fontStyle=0;childLayout=stackLayout;horizontal=1;startSize=30;horizontalStack=0;resizeParent=1;resizeParentMax=0;resizeLast=0;collapsible=1;marginBottom=0;whiteSpace=wrap;html=1;" parent="1" vertex="1">
                    <mxGeometry x="320" y="610" width="170" height="90" as="geometry"/>
                </mxCell>
                <mxCell id="97" value="move(move)" style="text;strokeColor=none;fillColor=none;align=left;verticalAlign=middle;spacingLeft=4;spacingRight=4;overflow=hidden;points=[[0,0.5],[1,0.5]];portConstraint=eastwest;rotatable=0;whiteSpace=wrap;html=1;" vertex="1" parent="29">
                    <mxGeometry y="30" width="170" height="30" as="geometry"/>
                </mxCell>
                <mxCell id="30" value="resign()" style="text;strokeColor=none;fillColor=none;align=left;verticalAlign=middle;spacingLeft=4;spacingRight=4;overflow=hidden;points=[[0,0.5],[1,0.5]];portConstraint=eastwest;rotatable=0;whiteSpace=wrap;html=1;" parent="29" vertex="1">
                    <mxGeometry y="60" width="170" height="30" as="geometry"/>
                </mxCell>
                <mxCell id="32" value="PlayerGameInput" style="swimlane;fontStyle=0;childLayout=stackLayout;horizontal=1;startSize=30;horizontalStack=0;resizeParent=1;resizeParentMax=0;resizeLast=0;collapsible=1;marginBottom=0;whiteSpace=wrap;html=1;" parent="1" vertex="1">
                    <mxGeometry x="320" y="470" width="170" height="60" as="geometry"/>
                </mxCell>
                <mxCell id="33" value="move(move)" style="text;strokeColor=none;fillColor=none;align=left;verticalAlign=middle;spacingLeft=4;spacingRight=4;overflow=hidden;points=[[0,0.5],[1,0.5]];portConstraint=eastwest;rotatable=0;whiteSpace=wrap;html=1;" parent="32" vertex="1">
                    <mxGeometry y="30" width="170" height="30" as="geometry"/>
                </mxCell>
                <mxCell id="37" value="" style="endArrow=classic;html=1;" parent="1" source="25" target="97" edge="1">
                    <mxGeometry width="50" height="50" relative="1" as="geometry">
                        <mxPoint x="680" y="320" as="sourcePoint"/>
                        <mxPoint x="405" y="650" as="targetPoint"/>
                    </mxGeometry>
                </mxCell>
                <mxCell id="38" value="" style="endArrow=classic;html=1;" parent="1" source="97" target="33" edge="1">
                    <mxGeometry width="50" height="50" relative="1" as="geometry">
                        <mxPoint x="730" y="320" as="sourcePoint"/>
                        <mxPoint x="780" y="270" as="targetPoint"/>
                    </mxGeometry>
                </mxCell>
                <mxCell id="39" value="" style="endArrow=classic;html=1;" parent="1" source="33" target="27" edge="1">
                    <mxGeometry width="50" height="50" relative="1" as="geometry">
                        <mxPoint x="680" y="320" as="sourcePoint"/>
                        <mxPoint x="730" y="270" as="targetPoint"/>
                    </mxGeometry>
                </mxCell>
                <mxCell id="40" value="Player" style="swimlane;fontStyle=0;childLayout=stackLayout;horizontal=1;startSize=30;horizontalStack=0;resizeParent=1;resizeParentMax=0;resizeLast=0;collapsible=1;marginBottom=0;whiteSpace=wrap;html=1;dashed=1;" parent="1" vertex="1">
                    <mxGeometry x="560" y="610" width="170" height="60" as="geometry"/>
                </mxCell>
                <mxCell id="41" value="move()" style="text;align=left;verticalAlign=middle;spacingLeft=4;spacingRight=4;overflow=hidden;points=[[0,0.5],[1,0.5]];portConstraint=eastwest;rotatable=0;whiteSpace=wrap;html=1;dashed=1;" parent="40" vertex="1">
                    <mxGeometry y="30" width="170" height="30" as="geometry"/>
                </mxCell>
                <mxCell id="42" value="PlayerGameInput" style="swimlane;fontStyle=0;childLayout=stackLayout;horizontal=1;startSize=30;horizontalStack=0;resizeParent=1;resizeParentMax=0;resizeLast=0;collapsible=1;marginBottom=0;whiteSpace=wrap;html=1;dashed=1;" parent="1" vertex="1">
                    <mxGeometry x="560" y="470" width="170" height="60" as="geometry"/>
                </mxCell>
                <mxCell id="43" value="move()" style="text;align=left;verticalAlign=middle;spacingLeft=4;spacingRight=4;overflow=hidden;points=[[0,0.5],[1,0.5]];portConstraint=eastwest;rotatable=0;whiteSpace=wrap;html=1;dashed=1;" parent="42" vertex="1">
                    <mxGeometry y="30" width="170" height="30" as="geometry"/>
                </mxCell>
                <mxCell id="44" value="" style="endArrow=classic;html=1;dashed=1;" parent="1" source="41" target="43" edge="1">
                    <mxGeometry width="50" height="50" relative="1" as="geometry">
                        <mxPoint x="960" y="320" as="sourcePoint"/>
                        <mxPoint x="1010" y="270" as="targetPoint"/>
                    </mxGeometry>
                </mxCell>
                <mxCell id="46" value="" style="group" parent="1" vertex="1" connectable="0">
                    <mxGeometry x="430" y="340" width="220" height="65" as="geometry"/>
                </mxCell>
                <mxCell id="26" value="Game" style="swimlane;fontStyle=0;childLayout=stackLayout;horizontal=1;startSize=30;horizontalStack=0;resizeParent=1;resizeParentMax=0;resizeLast=0;collapsible=1;marginBottom=0;whiteSpace=wrap;html=1;" parent="46" vertex="1">
                    <mxGeometry x="50" y="5" width="170" height="60" as="geometry"/>
                </mxCell>
                <mxCell id="27" value="move(move, playerIndex)" style="text;strokeColor=none;fillColor=none;align=left;verticalAlign=middle;spacingLeft=4;spacingRight=4;overflow=hidden;points=[[0,0.5],[1,0.5]];portConstraint=eastwest;rotatable=0;whiteSpace=wrap;html=1;" parent="26" vertex="1">
                    <mxGeometry y="30" width="170" height="30" as="geometry"/>
                </mxCell>
                <mxCell id="45" value="&#10;&#10;Event: played" style="shape=waypoint;sketch=0;fillStyle=solid;size=6;pointerEvents=1;points=[];fillColor=none;resizable=0;rotatable=0;perimeter=centerPerimeter;snapToPoint=1;" parent="46" vertex="1">
                    <mxGeometry width="20" height="20" as="geometry"/>
                </mxCell>
                <mxCell id="48" value="" style="endArrow=classic;html=1;exitX=0.55;exitY=0.282;exitDx=0;exitDy=0;exitPerimeter=0;entryX=0.556;entryY=0.973;entryDx=0;entryDy=0;entryPerimeter=0;" parent="1" source="45" target="47" edge="1">
                    <mxGeometry width="50" height="50" relative="1" as="geometry">
                        <mxPoint x="550" y="430" as="sourcePoint"/>
                        <mxPoint x="600" y="380" as="targetPoint"/>
                        <Array as="points">
                            <mxPoint x="230" y="450"/>
                            <mxPoint x="230" y="870"/>
                        </Array>
                    </mxGeometry>
                </mxCell>
                <mxCell id="49" value="GameClientSocket" style="swimlane;fontStyle=0;childLayout=stackLayout;horizontal=1;startSize=30;horizontalStack=0;resizeParent=1;resizeParentMax=0;resizeLast=0;collapsible=1;marginBottom=0;whiteSpace=wrap;html=1;" parent="1" vertex="1">
                    <mxGeometry x="445" y="210" width="240" height="90" as="geometry"/>
                </mxCell>
                <mxCell id="50" value="on played (move)" style="text;strokeColor=none;fillColor=none;align=left;verticalAlign=middle;spacingLeft=4;spacingRight=4;overflow=hidden;points=[[0,0.5],[1,0.5]];portConstraint=eastwest;rotatable=0;whiteSpace=wrap;html=1;" parent="49" vertex="1">
                    <mxGeometry y="30" width="240" height="30" as="geometry"/>
                </mxCell>
                <mxCell id="92" value="gameMove(move, byPlayerIndex)" style="text;strokeColor=none;fillColor=none;align=left;verticalAlign=middle;spacingLeft=4;spacingRight=4;overflow=hidden;points=[[0,0.5],[1,0.5]];portConstraint=eastwest;rotatable=0;whiteSpace=wrap;html=1;" parent="49" vertex="1">
                    <mxGeometry y="60" width="240" height="30" as="geometry"/>
                </mxCell>
                <mxCell id="52" value="HexClient" style="swimlane;fontStyle=0;childLayout=stackLayout;horizontal=1;startSize=30;horizontalStack=0;resizeParent=1;resizeParentMax=0;resizeLast=0;collapsible=1;marginBottom=0;whiteSpace=wrap;html=1;" parent="1" vertex="1">
                    <mxGeometry x="465" y="70" width="200" height="90" as="geometry"/>
                </mxCell>
                <mxCell id="90" value="playerMove(playerData, move)" style="text;strokeColor=none;fillColor=none;align=left;verticalAlign=middle;spacingLeft=4;spacingRight=4;overflow=hidden;points=[[0,0.5],[1,0.5]];portConstraint=eastwest;rotatable=0;whiteSpace=wrap;html=1;" parent="52" vertex="1">
                    <mxGeometry y="30" width="200" height="30" as="geometry"/>
                </mxCell>
                <mxCell id="53" value="socket on played" style="text;strokeColor=none;fillColor=none;align=left;verticalAlign=middle;spacingLeft=4;spacingRight=4;overflow=hidden;points=[[0,0.5],[1,0.5]];portConstraint=eastwest;rotatable=0;whiteSpace=wrap;html=1;" parent="52" vertex="1">
                    <mxGeometry y="60" width="200" height="30" as="geometry"/>
                </mxCell>
                <mxCell id="55" value="" style="endArrow=classic;html=1;exitX=0.691;exitY=0.518;exitDx=0;exitDy=0;exitPerimeter=0;" parent="1" source="45" target="50" edge="1">
                    <mxGeometry width="50" height="50" relative="1" as="geometry">
                        <mxPoint x="590" y="570" as="sourcePoint"/>
                        <mxPoint x="640" y="520" as="targetPoint"/>
                    </mxGeometry>
                </mxCell>
                <mxCell id="56" value="" style="endArrow=classic;html=1;" parent="1" source="50" target="53" edge="1">
                    <mxGeometry width="50" height="50" relative="1" as="geometry">
                        <mxPoint x="390" y="650" as="sourcePoint"/>
                        <mxPoint x="440" y="600" as="targetPoint"/>
                    </mxGeometry>
                </mxCell>
                <mxCell id="58" value="" style="endArrow=none;dashed=1;html=1;" parent="1" edge="1">
                    <mxGeometry width="50" height="50" relative="1" as="geometry">
                        <mxPoint x="40" y="20" as="sourcePoint"/>
                        <mxPoint x="820" y="20" as="targetPoint"/>
                    </mxGeometry>
                </mxCell>
                <mxCell id="59" value="HexServer" style="swimlane;fontStyle=0;childLayout=stackLayout;horizontal=1;startSize=30;horizontalStack=0;resizeParent=1;resizeParentMax=0;resizeLast=0;collapsible=1;marginBottom=0;whiteSpace=wrap;html=1;" parent="1" vertex="1">
                    <mxGeometry x="460" y="-140" width="210" height="100" as="geometry"/>
                </mxCell>
                <mxCell id="60" value="socket on move (gameId, move)" style="text;strokeColor=none;fillColor=none;align=left;verticalAlign=middle;spacingLeft=4;spacingRight=4;overflow=hidden;points=[[0,0.5],[1,0.5]];portConstraint=eastwest;rotatable=0;whiteSpace=wrap;html=1;" parent="59" vertex="1">
                    <mxGeometry y="30" width="210" height="30" as="geometry"/>
                </mxCell>
                <mxCell id="69" value="&lt;span style=&quot;color: rgb(240, 240, 240); font-family: Helvetica; font-size: 12px; font-style: normal; font-variant-ligatures: normal; font-variant-caps: normal; font-weight: 400; letter-spacing: normal; orphans: 2; text-align: left; text-indent: 0px; text-transform: none; widows: 2; word-spacing: 0px; -webkit-text-stroke-width: 0px; background-color: rgb(42, 37, 47); text-decoration-thickness: initial; text-decoration-style: initial; text-decoration-color: initial; float: none; display: inline !important;&quot;&gt;playerMove(playerId, gameId, move)&lt;/span&gt;" style="text;whiteSpace=wrap;html=1;" parent="59" vertex="1">
                    <mxGeometry y="60" width="210" height="40" as="geometry"/>
                </mxCell>
                <mxCell id="63" value="" style="shape=flexArrow;endArrow=classic;html=1;" parent="1" source="53" target="60" edge="1">
                    <mxGeometry width="50" height="50" relative="1" as="geometry">
                        <mxPoint x="250" y="-120" as="sourcePoint"/>
                        <mxPoint x="300" y="-170" as="targetPoint"/>
                    </mxGeometry>
                </mxCell>
                <mxCell id="64" value="GameServerSocket" style="swimlane;fontStyle=0;childLayout=stackLayout;horizontal=1;startSize=30;horizontalStack=0;resizeParent=1;resizeParentMax=0;resizeLast=0;collapsible=1;marginBottom=0;whiteSpace=wrap;html=1;" parent="1" vertex="1">
                    <mxGeometry x="475" y="-310" width="180" height="90" as="geometry"/>
                </mxCell>
                <mxCell id="88" value="playerMove(playerData, move)" style="text;strokeColor=none;fillColor=none;align=left;verticalAlign=middle;spacingLeft=4;spacingRight=4;overflow=hidden;points=[[0,0.5],[1,0.5]];portConstraint=eastwest;rotatable=0;whiteSpace=wrap;html=1;" parent="64" vertex="1">
                    <mxGeometry y="30" width="180" height="30" as="geometry"/>
                </mxCell>
                <mxCell id="68" value="socket emit (move)" style="text;strokeColor=none;fillColor=none;align=left;verticalAlign=middle;spacingLeft=4;spacingRight=4;overflow=hidden;points=[[0,0.5],[1,0.5]];portConstraint=eastwest;rotatable=0;whiteSpace=wrap;html=1;" parent="64" vertex="1">
                    <mxGeometry y="60" width="180" height="30" as="geometry"/>
                </mxCell>
                <mxCell id="70" value="" style="endArrow=classic;html=1;" parent="1" source="69" target="68" edge="1">
                    <mxGeometry width="50" height="50" relative="1" as="geometry">
                        <mxPoint x="240" y="-150" as="sourcePoint"/>
                        <mxPoint x="290" y="-200" as="targetPoint"/>
                    </mxGeometry>
                </mxCell>
                <mxCell id="71" value="Player" style="swimlane;fontStyle=0;childLayout=stackLayout;horizontal=1;startSize=30;horizontalStack=0;resizeParent=1;resizeParentMax=0;resizeLast=0;collapsible=1;marginBottom=0;whiteSpace=wrap;html=1;" parent="1" vertex="1">
                    <mxGeometry x="370" y="-420" width="170" height="60" as="geometry"/>
                </mxCell>
                <mxCell id="72" value="move(move)" style="text;strokeColor=none;fillColor=none;align=left;verticalAlign=middle;spacingLeft=4;spacingRight=4;overflow=hidden;points=[[0,0.5],[1,0.5]];portConstraint=eastwest;rotatable=0;whiteSpace=wrap;html=1;" parent="71" vertex="1">
                    <mxGeometry y="30" width="170" height="30" as="geometry"/>
                </mxCell>
                <mxCell id="73" value="PlayerGameInput" style="swimlane;fontStyle=0;childLayout=stackLayout;horizontal=1;startSize=30;horizontalStack=0;resizeParent=1;resizeParentMax=0;resizeLast=0;collapsible=1;marginBottom=0;whiteSpace=wrap;html=1;" parent="1" vertex="1">
                    <mxGeometry x="370" y="-560" width="170" height="60" as="geometry"/>
                </mxCell>
                <mxCell id="74" value="move(move)" style="text;strokeColor=none;fillColor=none;align=left;verticalAlign=middle;spacingLeft=4;spacingRight=4;overflow=hidden;points=[[0,0.5],[1,0.5]];portConstraint=eastwest;rotatable=0;whiteSpace=wrap;html=1;" parent="73" vertex="1">
                    <mxGeometry y="30" width="170" height="30" as="geometry"/>
                </mxCell>
                <mxCell id="75" value="" style="endArrow=classic;html=1;" parent="1" source="72" target="74" edge="1">
                    <mxGeometry width="50" height="50" relative="1" as="geometry">
                        <mxPoint x="780" y="-710" as="sourcePoint"/>
                        <mxPoint x="830" y="-760" as="targetPoint"/>
                    </mxGeometry>
                </mxCell>
                <mxCell id="76" value="" style="endArrow=classic;html=1;" parent="1" source="74" target="84" edge="1">
                    <mxGeometry width="50" height="50" relative="1" as="geometry">
                        <mxPoint x="730" y="-710" as="sourcePoint"/>
                        <mxPoint x="780" y="-760" as="targetPoint"/>
                    </mxGeometry>
                </mxCell>
                <mxCell id="77" value="Player" style="swimlane;fontStyle=0;childLayout=stackLayout;horizontal=1;startSize=30;horizontalStack=0;resizeParent=1;resizeParentMax=0;resizeLast=0;collapsible=1;marginBottom=0;whiteSpace=wrap;html=1;dashed=1;" parent="1" vertex="1">
                    <mxGeometry x="610" y="-420" width="170" height="60" as="geometry"/>
                </mxCell>
                <mxCell id="78" value="move()" style="text;align=left;verticalAlign=middle;spacingLeft=4;spacingRight=4;overflow=hidden;points=[[0,0.5],[1,0.5]];portConstraint=eastwest;rotatable=0;whiteSpace=wrap;html=1;dashed=1;" parent="77" vertex="1">
                    <mxGeometry y="30" width="170" height="30" as="geometry"/>
                </mxCell>
                <mxCell id="79" value="PlayerGameInput" style="swimlane;fontStyle=0;childLayout=stackLayout;horizontal=1;startSize=30;horizontalStack=0;resizeParent=1;resizeParentMax=0;resizeLast=0;collapsible=1;marginBottom=0;whiteSpace=wrap;html=1;dashed=1;" parent="1" vertex="1">
                    <mxGeometry x="610" y="-560" width="170" height="60" as="geometry"/>
                </mxCell>
                <mxCell id="80" value="move()" style="text;align=left;verticalAlign=middle;spacingLeft=4;spacingRight=4;overflow=hidden;points=[[0,0.5],[1,0.5]];portConstraint=eastwest;rotatable=0;whiteSpace=wrap;html=1;dashed=1;" parent="79" vertex="1">
                    <mxGeometry y="30" width="170" height="30" as="geometry"/>
                </mxCell>
                <mxCell id="81" value="" style="endArrow=classic;html=1;dashed=1;" parent="1" source="78" target="80" edge="1">
                    <mxGeometry width="50" height="50" relative="1" as="geometry">
                        <mxPoint x="1010" y="-710" as="sourcePoint"/>
                        <mxPoint x="1060" y="-760" as="targetPoint"/>
                    </mxGeometry>
                </mxCell>
                <mxCell id="82" value="" style="group" parent="1" vertex="1" connectable="0">
                    <mxGeometry x="480" y="-690" width="220" height="65" as="geometry"/>
                </mxCell>
                <mxCell id="83" value="Game" style="swimlane;fontStyle=0;childLayout=stackLayout;horizontal=1;startSize=30;horizontalStack=0;resizeParent=1;resizeParentMax=0;resizeLast=0;collapsible=1;marginBottom=0;whiteSpace=wrap;html=1;" parent="82" vertex="1">
                    <mxGeometry x="50" y="5" width="170" height="60" as="geometry"/>
                </mxCell>
                <mxCell id="84" value="move(move, playerIndex)" style="text;strokeColor=none;fillColor=none;align=left;verticalAlign=middle;spacingLeft=4;spacingRight=4;overflow=hidden;points=[[0,0.5],[1,0.5]];portConstraint=eastwest;rotatable=0;whiteSpace=wrap;html=1;" parent="83" vertex="1">
                    <mxGeometry y="30" width="170" height="30" as="geometry"/>
                </mxCell>
                <mxCell id="85" value="&#10;&#10;Event: played" style="shape=waypoint;sketch=0;fillStyle=solid;size=6;pointerEvents=1;points=[];fillColor=none;resizable=0;rotatable=0;perimeter=centerPerimeter;snapToPoint=1;" parent="82" vertex="1">
                    <mxGeometry width="20" height="20" as="geometry"/>
                </mxCell>
                <mxCell id="86" value="" style="endArrow=classic;html=1;" parent="1" source="68" target="72" edge="1">
                    <mxGeometry width="50" height="50" relative="1" as="geometry">
                        <mxPoint x="180" y="-240" as="sourcePoint"/>
                        <mxPoint x="230" y="-290" as="targetPoint"/>
                    </mxGeometry>
                </mxCell>
                <mxCell id="87" value="" style="endArrow=classic;html=1;" parent="1" source="85" target="68" edge="1">
                    <mxGeometry width="50" height="50" relative="1" as="geometry">
                        <mxPoint x="200" y="-500" as="sourcePoint"/>
                        <mxPoint x="200" y="-340" as="targetPoint"/>
                        <Array as="points">
                            <mxPoint x="320" y="-590"/>
                            <mxPoint x="320" y="-280"/>
                        </Array>
                    </mxGeometry>
                </mxCell>
                <mxCell id="89" value="" style="shape=flexArrow;endArrow=classic;html=1;" parent="1" source="68" target="53" edge="1">
                    <mxGeometry width="50" height="50" relative="1" as="geometry">
                        <mxPoint x="270" y="-90" as="sourcePoint"/>
                        <mxPoint x="330" y="50" as="targetPoint"/>
                        <Array as="points">
                            <mxPoint x="380" y="-210"/>
                            <mxPoint x="380" y="120"/>
                        </Array>
                    </mxGeometry>
                </mxCell>
                <mxCell id="91" value="" style="endArrow=classic;html=1;" parent="1" source="53" target="92" edge="1">
                    <mxGeometry width="50" height="50" relative="1" as="geometry">
                        <mxPoint x="260" y="260" as="sourcePoint"/>
                        <mxPoint x="400" y="260" as="targetPoint"/>
                        <Array as="points">
                            <mxPoint x="760" y="150"/>
                            <mxPoint x="760" y="270"/>
                        </Array>
                    </mxGeometry>
                </mxCell>
                <mxCell id="93" value="" style="endArrow=classic;html=1;" parent="1" source="92" target="27" edge="1">
                    <mxGeometry width="50" height="50" relative="1" as="geometry">
                        <mxPoint x="160" y="310" as="sourcePoint"/>
                        <mxPoint x="210" y="260" as="targetPoint"/>
                        <Array as="points">
                            <mxPoint x="740" y="300"/>
                            <mxPoint x="740" y="390"/>
                        </Array>
                    </mxGeometry>
                </mxCell>
                <mxCell id="96" value="Resign" style="rounded=1;whiteSpace=wrap;html=1;" parent="1" vertex="1">
                    <mxGeometry x="890" y="895" width="120" height="60" as="geometry"/>
                </mxCell>
                <mxCell id="98" value="" style="endArrow=classic;html=1;" edge="1" parent="1" source="96" target="30">
                    <mxGeometry width="50" height="50" relative="1" as="geometry">
                        <mxPoint x="690" y="930" as="sourcePoint"/>
                        <mxPoint x="740" y="880" as="targetPoint"/>
                    </mxGeometry>
                </mxCell>
            </root>
        </mxGraphModel>
    </diagram>
</mxfile>
